<?xml version="1.0" encoding="UTF-8" standalone="no"?>
<!DOCTYPE svg PUBLIC "-//W3C//DTD SVG 1.1//EN" "http://www.w3.org/Graphics/SVG/1.1/DTD/svg11.dtd">
<svg version="1.1" xmlns="http://www.w3.org/2000/svg" xmlns:xlink="http://www.w3.org/1999/xlink" preserveAspectRatio="xMidYMid meet" viewBox="0 0 900 697" width="900" height="697"><defs><path d="M898.54 697C898.49 618.46 898.98 551.66 900 496.6C902.39 368.14 905.97 150.39 900 149.77C899.38 149.71 849.34 159.71 807.29 189.01C782.93 205.99 759.32 234.98 736.47 275.99C709 337.77 679.28 382.22 647.3 409.35C590.99 457.12 499.7 476.73 462.06 483.64C378.59 498.98 331.14 501.02 273.71 517.21C218.21 532.85 188.93 548.87 155.56 571.33C104.46 605.73 74.27 647.62 64.98 697L898.54 697Z" id="ao2Eku1ey"></path><clipPath id="clipb1O94nfziz"><use xlink:href="#ao2Eku1ey" opacity="1"></use></clipPath></defs><g><g><g><use xlink:href="#ao2Eku1ey" opacity="1" fill="#b6c9ff" fill-opacity="1"></use><g clip-path="url(#clipb1O94nfziz)"><use xlink:href="#ao2Eku1ey" opacity="1" fill-opacity="0" stroke="#e9a96e" stroke-width="0" stroke-opacity="1"></use></g></g></g></g></svg>